<svg width="203" height="56" viewBox="0 0 203 56" fill="none" xmlns="http://www.w3.org/2000/svg">
<path d="M25.25 38L24.85 34.8C24.6333 34.7167 24.4291 34.6167 24.2375 34.5C24.0458 34.3833 23.8583 34.2583 23.675 34.125L20.7 35.375L17.95 30.625L20.525 28.675C20.5083 28.5583 20.5 28.4458 20.5 28.3375V27.6625C20.5 27.5542 20.5083 27.4417 20.525 27.325L17.95 25.375L20.7 20.625L23.675 21.875C23.8583 21.7417 24.05 21.6167 24.25 21.5C24.45 21.3833 24.65 21.2833 24.85 21.2L25.25 18H30.75L31.15 21.2C31.3666 21.2833 31.5708 21.3833 31.7625 21.5C31.9541 21.6167 32.1416 21.7417 32.325 21.875L35.3 20.625L38.05 25.375L35.475 27.325C35.4916 27.4417 35.5 27.5542 35.5 27.6625V28.3375C35.5 28.4458 35.4833 28.5583 35.45 28.675L38.025 30.625L35.275 35.375L32.325 34.125C32.1416 34.2583 31.95 34.3833 31.75 34.5C31.55 34.6167 31.35 34.7167 31.15 34.8L30.75 38H25.25ZM27 36H28.975L29.325 33.35C29.8416 33.2167 30.3208 33.0208 30.7625 32.7625C31.2041 32.5042 31.6083 32.1917 31.975 31.825L34.45 32.85L35.425 31.15L33.275 29.525C33.3583 29.2917 33.4166 29.0458 33.45 28.7875C33.4833 28.5292 33.5 28.2667 33.5 28C33.5 27.7333 33.4833 27.4708 33.45 27.2125C33.4166 26.9542 33.3583 26.7083 33.275 26.475L35.425 24.85L34.45 23.15L31.975 24.2C31.6083 23.8167 31.2041 23.4958 30.7625 23.2375C30.3208 22.9792 29.8416 22.7833 29.325 22.65L29 20H27.025L26.675 22.65C26.1583 22.7833 25.6791 22.9792 25.2375 23.2375C24.7958 23.4958 24.3916 23.8083 24.025 24.175L21.55 23.15L20.575 24.85L22.725 26.45C22.6416 26.7 22.5833 26.95 22.55 27.2C22.5166 27.45 22.5 27.7167 22.5 28C22.5 28.2667 22.5166 28.525 22.55 28.775C22.5833 29.025 22.6416 29.275 22.725 29.525L20.575 31.15L21.55 32.85L24.025 31.8C24.3916 32.1833 24.7958 32.5042 25.2375 32.7625C25.6791 33.0208 26.1583 33.2167 26.675 33.35L27 36ZM28.05 31.5C29.0166 31.5 29.8416 31.1583 30.525 30.475C31.2083 29.7917 31.55 28.9667 31.55 28C31.55 27.0333 31.2083 26.2083 30.525 25.525C29.8416 24.8417 29.0166 24.5 28.05 24.5C27.0666 24.5 26.2375 24.8417 25.5625 25.525C24.8875 26.2083 24.55 27.0333 24.55 28C24.55 28.9667 24.8875 29.7917 25.5625 30.475C26.2375 31.1583 27.0666 31.5 28.05 31.5Z" fill="#AFF4C6"/>
<path d="M64.0078 30.9609C64.0078 31.638 63.8385 32.2161 63.5 32.6953C63.1667 33.1693 62.6979 33.5312 62.0938 33.7812C61.4896 34.0312 60.7786 34.1562 59.9609 34.1562C59.5286 34.1562 59.1198 34.1354 58.7344 34.0938C58.349 34.0521 57.9948 33.9922 57.6719 33.9141C57.349 33.8359 57.0651 33.7396 56.8203 33.625V32.3516C57.2109 32.513 57.6875 32.6641 58.25 32.8047C58.8125 32.9401 59.401 33.0078 60.0156 33.0078C60.5885 33.0078 61.0729 32.9323 61.4688 32.7812C61.8646 32.625 62.1641 32.4036 62.3672 32.1172C62.5755 31.8255 62.6797 31.4766 62.6797 31.0703C62.6797 30.6797 62.5938 30.3542 62.4219 30.0938C62.25 29.8281 61.9635 29.5885 61.5625 29.375C61.1667 29.1562 60.625 28.9245 59.9375 28.6797C59.4531 28.5078 59.026 28.3203 58.6562 28.1172C58.2865 27.9089 57.9766 27.6745 57.7266 27.4141C57.4766 27.1536 57.2865 26.8516 57.1562 26.5078C57.0312 26.1641 56.9688 25.7708 56.9688 25.3281C56.9688 24.7188 57.1224 24.1979 57.4297 23.7656C57.7422 23.3281 58.1719 22.9948 58.7188 22.7656C59.2708 22.5312 59.9036 22.4141 60.6172 22.4141C61.2266 22.4141 61.7891 22.4714 62.3047 22.5859C62.8255 22.7005 63.3021 22.8542 63.7344 23.0469L63.3203 24.1875C62.9089 24.0156 62.4714 23.8724 62.0078 23.7578C61.5495 23.6432 61.0755 23.5859 60.5859 23.5859C60.0964 23.5859 59.6823 23.6589 59.3438 23.8047C59.0104 23.9453 58.7552 24.1458 58.5781 24.4062C58.401 24.6667 58.3125 24.9766 58.3125 25.3359C58.3125 25.737 58.3958 26.0703 58.5625 26.3359C58.7344 26.6016 59.0052 26.8385 59.375 27.0469C59.75 27.25 60.2448 27.4635 60.8594 27.6875C61.5312 27.9323 62.1016 28.1927 62.5703 28.4688C63.0391 28.7396 63.3958 29.0729 63.6406 29.4688C63.8854 29.8594 64.0078 30.3568 64.0078 30.9609ZM69.4453 25.2812C70.1745 25.2812 70.7995 25.4427 71.3203 25.7656C71.8411 26.0885 72.2396 26.5417 72.5156 27.125C72.7917 27.7031 72.9297 28.3802 72.9297 29.1562V29.9609H67.0156C67.0312 30.9661 67.2812 31.7318 67.7656 32.2578C68.25 32.7839 68.9323 33.0469 69.8125 33.0469C70.3542 33.0469 70.8333 32.9974 71.25 32.8984C71.6667 32.7995 72.099 32.6536 72.5469 32.4609V33.6016C72.1146 33.7943 71.6849 33.9349 71.2578 34.0234C70.8359 34.112 70.3359 34.1562 69.7578 34.1562C68.9349 34.1562 68.2161 33.9896 67.6016 33.6562C66.9922 33.3177 66.5182 32.8229 66.1797 32.1719C65.8411 31.5208 65.6719 30.724 65.6719 29.7812C65.6719 28.8594 65.8255 28.0625 66.1328 27.3906C66.4453 26.7135 66.8828 26.1927 67.4453 25.8281C68.013 25.4635 68.6797 25.2812 69.4453 25.2812ZM69.4297 26.3438C68.737 26.3438 68.1849 26.5703 67.7734 27.0234C67.362 27.4766 67.1172 28.1094 67.0391 28.9219H71.5703C71.5651 28.4115 71.4844 27.9635 71.3281 27.5781C71.1771 27.1875 70.9453 26.8854 70.6328 26.6719C70.3203 26.4531 69.9193 26.3438 69.4297 26.3438ZM77.8984 33.0938C78.112 33.0938 78.3307 33.0755 78.5547 33.0391C78.7786 33.0026 78.9609 32.9583 79.1016 32.9062V33.9141C78.9505 33.9818 78.7396 34.0391 78.4688 34.0859C78.2031 34.1328 77.9427 34.1562 77.6875 34.1562C77.2344 34.1562 76.8229 34.0781 76.4531 33.9219C76.0833 33.7604 75.7865 33.4896 75.5625 33.1094C75.3438 32.7292 75.2344 32.2031 75.2344 31.5312V26.4531H74.0156V25.8203L75.2422 25.3125L75.7578 23.4531H76.5391V25.4375H79.0469V26.4531H76.5391V31.4922C76.5391 32.0286 76.6615 32.4297 76.9062 32.6953C77.1562 32.9609 77.487 33.0938 77.8984 33.0938ZM83.6016 33.0938C83.8151 33.0938 84.0339 33.0755 84.2578 33.0391C84.4818 33.0026 84.6641 32.9583 84.8047 32.9062V33.9141C84.6536 33.9818 84.4427 34.0391 84.1719 34.0859C83.9062 34.1328 83.6458 34.1562 83.3906 34.1562C82.9375 34.1562 82.526 34.0781 82.1562 33.9219C81.7865 33.7604 81.4896 33.4896 81.2656 33.1094C81.0469 32.7292 80.9375 32.2031 80.9375 31.5312V26.4531H79.7188V25.8203L80.9453 25.3125L81.4609 23.4531H82.2422V25.4375H84.75V26.4531H82.2422V31.4922C82.2422 32.0286 82.3646 32.4297 82.6094 32.6953C82.8594 32.9609 83.1901 33.0938 83.6016 33.0938ZM87.8359 25.4375V34H86.5391V25.4375H87.8359ZM87.2031 22.2344C87.4167 22.2344 87.599 22.3047 87.75 22.4453C87.9062 22.5807 87.9844 22.7943 87.9844 23.0859C87.9844 23.3724 87.9062 23.5859 87.75 23.7266C87.599 23.8672 87.4167 23.9375 87.2031 23.9375C86.9792 23.9375 86.7917 23.8672 86.6406 23.7266C86.4948 23.5859 86.4219 23.3724 86.4219 23.0859C86.4219 22.7943 86.4948 22.5807 86.6406 22.4453C86.7917 22.3047 86.9792 22.2344 87.2031 22.2344ZM94.6406 25.2812C95.6562 25.2812 96.4245 25.5312 96.9453 26.0312C97.4661 26.526 97.7266 27.3229 97.7266 28.4219V34H96.4453V28.5078C96.4453 27.7943 96.2812 27.2604 95.9531 26.9062C95.6302 26.5521 95.1328 26.375 94.4609 26.375C93.513 26.375 92.8464 26.6432 92.4609 27.1797C92.0755 27.7161 91.8828 28.4948 91.8828 29.5156V34H90.5859V25.4375H91.6328L91.8281 26.6719H91.8984C92.0807 26.3698 92.3125 26.1172 92.5938 25.9141C92.875 25.7057 93.1901 25.5495 93.5391 25.4453C93.888 25.3359 94.2552 25.2812 94.6406 25.2812ZM102.789 37.8438C101.664 37.8438 100.797 37.6328 100.188 37.2109C99.5781 36.7943 99.2734 36.2083 99.2734 35.4531C99.2734 34.9167 99.4427 34.4583 99.7812 34.0781C100.125 33.6979 100.599 33.4453 101.203 33.3203C100.979 33.2161 100.786 33.0599 100.625 32.8516C100.469 32.6432 100.391 32.4036 100.391 32.1328C100.391 31.8203 100.477 31.5469 100.648 31.3125C100.826 31.0729 101.094 30.8438 101.453 30.625C101.005 30.4427 100.641 30.1354 100.359 29.7031C100.083 29.2656 99.9453 28.7578 99.9453 28.1797C99.9453 27.5651 100.073 27.0417 100.328 26.6094C100.583 26.1719 100.953 25.8385 101.438 25.6094C101.922 25.3802 102.508 25.2656 103.195 25.2656C103.346 25.2656 103.497 25.2734 103.648 25.2891C103.805 25.2995 103.953 25.3177 104.094 25.3438C104.234 25.3646 104.357 25.3906 104.461 25.4219H107.398V26.2578L105.82 26.4531C105.977 26.6562 106.107 26.901 106.211 27.1875C106.315 27.474 106.367 27.7917 106.367 28.1406C106.367 28.9948 106.078 29.6745 105.5 30.1797C104.922 30.6797 104.128 30.9297 103.117 30.9297C102.878 30.9297 102.633 30.9089 102.383 30.8672C102.128 31.0078 101.932 31.1641 101.797 31.3359C101.667 31.5078 101.602 31.7057 101.602 31.9297C101.602 32.0964 101.651 32.2292 101.75 32.3281C101.854 32.4271 102.003 32.5 102.195 32.5469C102.388 32.5885 102.62 32.6094 102.891 32.6094H104.398C105.331 32.6094 106.044 32.8047 106.539 33.1953C107.039 33.5859 107.289 34.1562 107.289 34.9062C107.289 35.8542 106.904 36.5807 106.133 37.0859C105.362 37.5911 104.247 37.8438 102.789 37.8438ZM102.828 36.8281C103.536 36.8281 104.122 36.7552 104.586 36.6094C105.055 36.4688 105.404 36.263 105.633 35.9922C105.867 35.7266 105.984 35.4089 105.984 35.0391C105.984 34.6953 105.906 34.4349 105.75 34.2578C105.594 34.0859 105.365 33.9714 105.062 33.9141C104.76 33.8516 104.391 33.8203 103.953 33.8203H102.469C102.083 33.8203 101.747 33.8802 101.461 34C101.174 34.1198 100.953 34.2969 100.797 34.5312C100.646 34.7656 100.57 35.0573 100.57 35.4062C100.57 35.8698 100.766 36.2214 101.156 36.4609C101.547 36.7057 102.104 36.8281 102.828 36.8281ZM103.164 29.9844C103.784 29.9844 104.25 29.8281 104.562 29.5156C104.875 29.2031 105.031 28.7474 105.031 28.1484C105.031 27.5078 104.872 27.0286 104.555 26.7109C104.237 26.388 103.768 26.2266 103.148 26.2266C102.555 26.2266 102.096 26.3932 101.773 26.7266C101.456 27.0547 101.297 27.5365 101.297 28.1719C101.297 28.7552 101.458 29.2031 101.781 29.5156C102.104 29.8281 102.565 29.9844 103.164 29.9844ZM114.625 31.6562C114.625 32.2031 114.487 32.6641 114.211 33.0391C113.94 33.4089 113.549 33.6875 113.039 33.875C112.534 34.0625 111.93 34.1562 111.227 34.1562C110.628 34.1562 110.109 34.1094 109.672 34.0156C109.234 33.9219 108.852 33.7891 108.523 33.6172V32.4219C108.872 32.5938 109.289 32.75 109.773 32.8906C110.258 33.0312 110.753 33.1016 111.258 33.1016C111.997 33.1016 112.534 32.9818 112.867 32.7422C113.201 32.5026 113.367 32.1771 113.367 31.7656C113.367 31.5312 113.299 31.3255 113.164 31.1484C113.034 30.9661 112.812 30.7917 112.5 30.625C112.188 30.4531 111.755 30.2656 111.203 30.0625C110.656 29.8542 110.182 29.6484 109.781 29.4453C109.385 29.237 109.078 28.9844 108.859 28.6875C108.646 28.3906 108.539 28.0052 108.539 27.5312C108.539 26.8073 108.831 26.2526 109.414 25.8672C110.003 25.4766 110.773 25.2812 111.727 25.2812C112.242 25.2812 112.724 25.3333 113.172 25.4375C113.625 25.5365 114.047 25.6719 114.438 25.8438L114 26.8828C113.646 26.7318 113.268 26.6042 112.867 26.5C112.466 26.3958 112.057 26.3438 111.641 26.3438C111.042 26.3438 110.581 26.4427 110.258 26.6406C109.94 26.8385 109.781 27.1094 109.781 27.4531C109.781 27.7188 109.854 27.9375 110 28.1094C110.151 28.2812 110.391 28.4427 110.719 28.5938C111.047 28.7448 111.479 28.9219 112.016 29.125C112.552 29.3229 113.016 29.5286 113.406 29.7422C113.797 29.9505 114.096 30.2057 114.305 30.5078C114.518 30.8047 114.625 31.1875 114.625 31.6562Z" fill="#EFEFEF"/>
</svg>
