<svg width="218" height="56" viewBox="0 0 218 56" fill="none" xmlns="http://www.w3.org/2000/svg">
<path d="M28 38C33.3552 38 37.7272 33.7905 37.9877 28.4999C38.0013 28.2241 37.7761 28 37.5 28H28.5C28.2239 28 28 27.7761 28 27.5V18.5C28 18.2239 27.7759 17.9987 27.5001 18.0123C22.2095 18.2728 18 22.6448 18 28C18 33.5228 22.4772 38 28 38Z" stroke="#AFF4C6" stroke-width="1.5"/>
<path d="M37.9846 25.4999C37.7367 21.48 34.52 18.2633 30.5001 18.0154C30.2245 17.9984 30 18.2239 30 18.5V25.5C30 25.7761 30.2239 26 30.5 26H37.5C37.7761 26 38.0016 25.7755 37.9846 25.4999Z" stroke="#AFF4C6" stroke-width="1.5"/>
<path d="M64.7266 34L63.3203 30.375H58.7422L57.3438 34H56L60.4688 22.5312H61.6641L66.1016 34H64.7266ZM62.9219 29.1953L61.5859 25.5938C61.5547 25.5 61.5026 25.3464 61.4297 25.1328C61.362 24.9193 61.2917 24.6979 61.2188 24.4688C61.1458 24.2396 61.0859 24.0547 61.0391 23.9141C60.987 24.1276 60.9297 24.3411 60.8672 24.5547C60.8099 24.763 60.7526 24.9583 60.6953 25.1406C60.638 25.3177 60.5885 25.4688 60.5469 25.5938L59.1875 29.1953H62.9219ZM71.5469 25.2812C72.5625 25.2812 73.3307 25.5312 73.8516 26.0312C74.3724 26.526 74.6328 27.3229 74.6328 28.4219V34H73.3516V28.5078C73.3516 27.7943 73.1875 27.2604 72.8594 26.9062C72.5365 26.5521 72.0391 26.375 71.3672 26.375C70.4193 26.375 69.7526 26.6432 69.3672 27.1797C68.9818 27.7161 68.7891 28.4948 68.7891 29.5156V34H67.4922V25.4375H68.5391L68.7344 26.6719H68.8047C68.987 26.3698 69.2188 26.1172 69.5 25.9141C69.7812 25.7057 70.0964 25.5495 70.4453 25.4453C70.7943 25.3359 71.1615 25.2812 71.5469 25.2812ZM80.5078 25.2969C81.5286 25.2969 82.2865 25.526 82.7812 25.9844C83.276 26.4427 83.5234 27.1745 83.5234 28.1797V34H82.5781L82.3281 32.7344H82.2656C82.026 33.0469 81.776 33.3099 81.5156 33.5234C81.2552 33.7318 80.9531 33.8906 80.6094 34C80.2708 34.1042 79.8542 34.1562 79.3594 34.1562C78.8385 34.1562 78.375 34.0651 77.9688 33.8828C77.5677 33.7005 77.25 33.4245 77.0156 33.0547C76.7865 32.6849 76.6719 32.2161 76.6719 31.6484C76.6719 30.7943 77.0104 30.138 77.6875 29.6797C78.3646 29.2214 79.3958 28.9714 80.7812 28.9297L82.2578 28.8672V28.3438C82.2578 27.6042 82.099 27.0859 81.7812 26.7891C81.4635 26.4922 81.0156 26.3438 80.4375 26.3438C79.9896 26.3438 79.5625 26.4089 79.1562 26.5391C78.75 26.6693 78.3646 26.8229 78 27L77.6016 26.0156C77.987 25.8177 78.4297 25.6484 78.9297 25.5078C79.4297 25.3672 79.9557 25.2969 80.5078 25.2969ZM82.2422 29.7812L80.9375 29.8359C79.8698 29.8776 79.1172 30.0521 78.6797 30.3594C78.2422 30.6667 78.0234 31.1016 78.0234 31.6641C78.0234 32.1536 78.1719 32.5156 78.4688 32.75C78.7656 32.9844 79.1589 33.1016 79.6484 33.1016C80.4089 33.1016 81.0312 32.8906 81.5156 32.4688C82 32.0469 82.2422 31.4141 82.2422 30.5703V29.7812ZM87.5 34H86.1953V21.8438H87.5V34ZM88.8906 25.4375H90.2812L92.1719 30.4062C92.2812 30.6979 92.3828 30.9792 92.4766 31.25C92.5703 31.5156 92.6536 31.7708 92.7266 32.0156C92.7995 32.2604 92.8568 32.4974 92.8984 32.7266H92.9531C93.026 32.4661 93.1302 32.125 93.2656 31.7031C93.401 31.276 93.5469 30.8411 93.7031 30.3984L95.4922 25.4375H96.8906L93.1641 35.2578C92.9661 35.7839 92.7344 36.2422 92.4688 36.6328C92.2083 37.0234 91.8906 37.3229 91.5156 37.5312C91.1406 37.7448 90.6875 37.8516 90.1562 37.8516C89.9115 37.8516 89.6953 37.8359 89.5078 37.8047C89.3203 37.7786 89.1589 37.7474 89.0234 37.7109V36.6719C89.138 36.6979 89.276 36.7214 89.4375 36.7422C89.6042 36.763 89.776 36.7734 89.9531 36.7734C90.276 36.7734 90.5547 36.7109 90.7891 36.5859C91.0286 36.4661 91.2344 36.2891 91.4062 36.0547C91.5781 35.8203 91.7266 35.5417 91.8516 35.2188L92.3203 34.0156L88.8906 25.4375ZM101.023 33.0938C101.237 33.0938 101.456 33.0755 101.68 33.0391C101.904 33.0026 102.086 32.9583 102.227 32.9062V33.9141C102.076 33.9818 101.865 34.0391 101.594 34.0859C101.328 34.1328 101.068 34.1562 100.812 34.1562C100.359 34.1562 99.9479 34.0781 99.5781 33.9219C99.2083 33.7604 98.9115 33.4896 98.6875 33.1094C98.4688 32.7292 98.3594 32.2031 98.3594 31.5312V26.4531H97.1406V25.8203L98.3672 25.3125L98.8828 23.4531H99.6641V25.4375H102.172V26.4531H99.6641V31.4922C99.6641 32.0286 99.7865 32.4297 100.031 32.6953C100.281 32.9609 100.612 33.0938 101.023 33.0938ZM105.258 25.4375V34H103.961V25.4375H105.258ZM104.625 22.2344C104.839 22.2344 105.021 22.3047 105.172 22.4453C105.328 22.5807 105.406 22.7943 105.406 23.0859C105.406 23.3724 105.328 23.5859 105.172 23.7266C105.021 23.8672 104.839 23.9375 104.625 23.9375C104.401 23.9375 104.214 23.8672 104.062 23.7266C103.917 23.5859 103.844 23.3724 103.844 23.0859C103.844 22.7943 103.917 22.5807 104.062 22.4453C104.214 22.3047 104.401 22.2344 104.625 22.2344ZM111.438 34.1562C110.667 34.1562 109.987 33.9974 109.398 33.6797C108.81 33.362 108.352 32.8776 108.023 32.2266C107.695 31.5755 107.531 30.7552 107.531 29.7656C107.531 28.7292 107.703 27.8828 108.047 27.2266C108.396 26.5651 108.875 26.0755 109.484 25.7578C110.094 25.4401 110.786 25.2812 111.562 25.2812C111.99 25.2812 112.401 25.3255 112.797 25.4141C113.198 25.4974 113.526 25.6042 113.781 25.7344L113.391 26.8203C113.13 26.7161 112.828 26.6224 112.484 26.5391C112.146 26.4557 111.828 26.4141 111.531 26.4141C110.938 26.4141 110.443 26.5417 110.047 26.7969C109.656 27.0521 109.362 27.4271 109.164 27.9219C108.971 28.4167 108.875 29.026 108.875 29.75C108.875 30.4427 108.969 31.0339 109.156 31.5234C109.349 32.013 109.633 32.388 110.008 32.6484C110.388 32.9036 110.862 33.0312 111.43 33.0312C111.883 33.0312 112.292 32.9844 112.656 32.8906C113.021 32.7917 113.352 32.6771 113.648 32.5469V33.7031C113.362 33.849 113.042 33.9609 112.688 34.0391C112.339 34.1172 111.922 34.1562 111.438 34.1562ZM121.219 31.6562C121.219 32.2031 121.081 32.6641 120.805 33.0391C120.534 33.4089 120.143 33.6875 119.633 33.875C119.128 34.0625 118.523 34.1562 117.82 34.1562C117.221 34.1562 116.703 34.1094 116.266 34.0156C115.828 33.9219 115.445 33.7891 115.117 33.6172V32.4219C115.466 32.5938 115.883 32.75 116.367 32.8906C116.852 33.0312 117.346 33.1016 117.852 33.1016C118.591 33.1016 119.128 32.9818 119.461 32.7422C119.794 32.5026 119.961 32.1771 119.961 31.7656C119.961 31.5312 119.893 31.3255 119.758 31.1484C119.628 30.9661 119.406 30.7917 119.094 30.625C118.781 30.4531 118.349 30.2656 117.797 30.0625C117.25 29.8542 116.776 29.6484 116.375 29.4453C115.979 29.237 115.672 28.9844 115.453 28.6875C115.24 28.3906 115.133 28.0052 115.133 27.5312C115.133 26.8073 115.424 26.2526 116.008 25.8672C116.596 25.4766 117.367 25.2812 118.32 25.2812C118.836 25.2812 119.318 25.3333 119.766 25.4375C120.219 25.5365 120.641 25.6719 121.031 25.8438L120.594 26.8828C120.24 26.7318 119.862 26.6042 119.461 26.5C119.06 26.3958 118.651 26.3438 118.234 26.3438C117.635 26.3438 117.174 26.4427 116.852 26.6406C116.534 26.8385 116.375 27.1094 116.375 27.4531C116.375 27.7188 116.448 27.9375 116.594 28.1094C116.745 28.2812 116.984 28.4427 117.312 28.5938C117.641 28.7448 118.073 28.9219 118.609 29.125C119.146 29.3229 119.609 29.5286 120 29.7422C120.391 29.9505 120.69 30.2057 120.898 30.5078C121.112 30.8047 121.219 31.1875 121.219 31.6562Z" fill="#EFEFEF"/>
</svg>
