<svg width="218" height="56" viewBox="0 0 218 56" fill="none" xmlns="http://www.w3.org/2000/svg">
<path d="M18 38V20C18 19.45 18.1958 18.9792 18.5875 18.5875C18.9792 18.1958 19.45 18 20 18H36C36.55 18 37.0208 18.1958 37.4125 18.5875C37.8042 18.9792 38 19.45 38 20V32C38 32.55 37.8042 33.0208 37.4125 33.4125C37.0208 33.8042 36.55 34 36 34H22L18 38ZM21.15 32H36V20H20V33.125L21.15 32Z" fill="#AFF4C6"/>
<path d="M64.7266 34L63.3203 30.375H58.7422L57.3438 34H56L60.4688 22.5312H61.6641L66.1016 34H64.7266ZM62.9219 29.1953L61.5859 25.5938C61.5547 25.5 61.5026 25.3464 61.4297 25.1328C61.362 24.9193 61.2917 24.6979 61.2188 24.4688C61.1458 24.2396 61.0859 24.0547 61.0391 23.9141C60.987 24.1276 60.9297 24.3411 60.8672 24.5547C60.8099 24.763 60.7526 24.9583 60.6953 25.1406C60.638 25.3177 60.5885 25.4688 60.5469 25.5938L59.1875 29.1953H62.9219ZM67.6875 34V22.5781H69.0156V34H67.6875ZM83.4766 34L82.0703 30.375H77.4922L76.0938 34H74.75L79.2188 22.5312H80.4141L84.8516 34H83.4766ZM81.6719 29.1953L80.3359 25.5938C80.3047 25.5 80.2526 25.3464 80.1797 25.1328C80.112 24.9193 80.0417 24.6979 79.9688 24.4688C79.8958 24.2396 79.8359 24.0547 79.7891 23.9141C79.737 24.1276 79.6797 24.3411 79.6172 24.5547C79.5599 24.763 79.5026 24.9583 79.4453 25.1406C79.388 25.3177 79.3385 25.4688 79.2969 25.5938L77.9375 29.1953H81.6719ZM91.7812 31.6562C91.7812 32.2031 91.6432 32.6641 91.3672 33.0391C91.0964 33.4089 90.7057 33.6875 90.1953 33.875C89.6901 34.0625 89.0859 34.1562 88.3828 34.1562C87.7839 34.1562 87.2656 34.1094 86.8281 34.0156C86.3906 33.9219 86.0078 33.7891 85.6797 33.6172V32.4219C86.0286 32.5938 86.4453 32.75 86.9297 32.8906C87.4141 33.0312 87.9089 33.1016 88.4141 33.1016C89.1536 33.1016 89.6901 32.9818 90.0234 32.7422C90.3568 32.5026 90.5234 32.1771 90.5234 31.7656C90.5234 31.5312 90.4557 31.3255 90.3203 31.1484C90.1901 30.9661 89.9688 30.7917 89.6562 30.625C89.3438 30.4531 88.9115 30.2656 88.3594 30.0625C87.8125 29.8542 87.3385 29.6484 86.9375 29.4453C86.5417 29.237 86.2344 28.9844 86.0156 28.6875C85.8021 28.3906 85.6953 28.0052 85.6953 27.5312C85.6953 26.8073 85.987 26.2526 86.5703 25.8672C87.1589 25.4766 87.9297 25.2812 88.8828 25.2812C89.3984 25.2812 89.8802 25.3333 90.3281 25.4375C90.7812 25.5365 91.2031 25.6719 91.5938 25.8438L91.1562 26.8828C90.8021 26.7318 90.4245 26.6042 90.0234 26.5C89.6224 26.3958 89.2135 26.3438 88.7969 26.3438C88.1979 26.3438 87.737 26.4427 87.4141 26.6406C87.0964 26.8385 86.9375 27.1094 86.9375 27.4531C86.9375 27.7188 87.0104 27.9375 87.1562 28.1094C87.3073 28.2812 87.5469 28.4427 87.875 28.5938C88.2031 28.7448 88.6354 28.9219 89.1719 29.125C89.7083 29.3229 90.1719 29.5286 90.5625 29.7422C90.9531 29.9505 91.2526 30.2057 91.4609 30.5078C91.6745 30.8047 91.7812 31.1875 91.7812 31.6562ZM99.4062 31.6562C99.4062 32.2031 99.2682 32.6641 98.9922 33.0391C98.7214 33.4089 98.3307 33.6875 97.8203 33.875C97.3151 34.0625 96.7109 34.1562 96.0078 34.1562C95.4089 34.1562 94.8906 34.1094 94.4531 34.0156C94.0156 33.9219 93.6328 33.7891 93.3047 33.6172V32.4219C93.6536 32.5938 94.0703 32.75 94.5547 32.8906C95.0391 33.0312 95.5339 33.1016 96.0391 33.1016C96.7786 33.1016 97.3151 32.9818 97.6484 32.7422C97.9818 32.5026 98.1484 32.1771 98.1484 31.7656C98.1484 31.5312 98.0807 31.3255 97.9453 31.1484C97.8151 30.9661 97.5938 30.7917 97.2812 30.625C96.9688 30.4531 96.5365 30.2656 95.9844 30.0625C95.4375 29.8542 94.9635 29.6484 94.5625 29.4453C94.1667 29.237 93.8594 28.9844 93.6406 28.6875C93.4271 28.3906 93.3203 28.0052 93.3203 27.5312C93.3203 26.8073 93.612 26.2526 94.1953 25.8672C94.7839 25.4766 95.5547 25.2812 96.5078 25.2812C97.0234 25.2812 97.5052 25.3333 97.9531 25.4375C98.4062 25.5365 98.8281 25.6719 99.2188 25.8438L98.7812 26.8828C98.4271 26.7318 98.0495 26.6042 97.6484 26.5C97.2474 26.3958 96.8385 26.3438 96.4219 26.3438C95.8229 26.3438 95.362 26.4427 95.0391 26.6406C94.7214 26.8385 94.5625 27.1094 94.5625 27.4531C94.5625 27.7188 94.6354 27.9375 94.7812 28.1094C94.9323 28.2812 95.1719 28.4427 95.5 28.5938C95.8281 28.7448 96.2604 28.9219 96.7969 29.125C97.3333 29.3229 97.7969 29.5286 98.1875 29.7422C98.5781 29.9505 98.8776 30.2057 99.0859 30.5078C99.2995 30.8047 99.4062 31.1875 99.4062 31.6562ZM102.789 25.4375V34H101.492V25.4375H102.789ZM102.156 22.2344C102.37 22.2344 102.552 22.3047 102.703 22.4453C102.859 22.5807 102.938 22.7943 102.938 23.0859C102.938 23.3724 102.859 23.5859 102.703 23.7266C102.552 23.8672 102.37 23.9375 102.156 23.9375C101.932 23.9375 101.745 23.8672 101.594 23.7266C101.448 23.5859 101.375 23.3724 101.375 23.0859C101.375 22.7943 101.448 22.5807 101.594 22.4453C101.745 22.3047 101.932 22.2344 102.156 22.2344ZM111.078 31.6562C111.078 32.2031 110.94 32.6641 110.664 33.0391C110.393 33.4089 110.003 33.6875 109.492 33.875C108.987 34.0625 108.383 34.1562 107.68 34.1562C107.081 34.1562 106.562 34.1094 106.125 34.0156C105.688 33.9219 105.305 33.7891 104.977 33.6172V32.4219C105.326 32.5938 105.742 32.75 106.227 32.8906C106.711 33.0312 107.206 33.1016 107.711 33.1016C108.451 33.1016 108.987 32.9818 109.32 32.7422C109.654 32.5026 109.82 32.1771 109.82 31.7656C109.82 31.5312 109.753 31.3255 109.617 31.1484C109.487 30.9661 109.266 30.7917 108.953 30.625C108.641 30.4531 108.208 30.2656 107.656 30.0625C107.109 29.8542 106.635 29.6484 106.234 29.4453C105.839 29.237 105.531 28.9844 105.312 28.6875C105.099 28.3906 104.992 28.0052 104.992 27.5312C104.992 26.8073 105.284 26.2526 105.867 25.8672C106.456 25.4766 107.227 25.2812 108.18 25.2812C108.695 25.2812 109.177 25.3333 109.625 25.4375C110.078 25.5365 110.5 25.6719 110.891 25.8438L110.453 26.8828C110.099 26.7318 109.721 26.6042 109.32 26.5C108.919 26.3958 108.51 26.3438 108.094 26.3438C107.495 26.3438 107.034 26.4427 106.711 26.6406C106.393 26.8385 106.234 27.1094 106.234 27.4531C106.234 27.7188 106.307 27.9375 106.453 28.1094C106.604 28.2812 106.844 28.4427 107.172 28.5938C107.5 28.7448 107.932 28.9219 108.469 29.125C109.005 29.3229 109.469 29.5286 109.859 29.7422C110.25 29.9505 110.549 30.2057 110.758 30.5078C110.971 30.8047 111.078 31.1875 111.078 31.6562ZM115.93 33.0938C116.143 33.0938 116.362 33.0755 116.586 33.0391C116.81 33.0026 116.992 32.9583 117.133 32.9062V33.9141C116.982 33.9818 116.771 34.0391 116.5 34.0859C116.234 34.1328 115.974 34.1562 115.719 34.1562C115.266 34.1562 114.854 34.0781 114.484 33.9219C114.115 33.7604 113.818 33.4896 113.594 33.1094C113.375 32.7292 113.266 32.2031 113.266 31.5312V26.4531H112.047V25.8203L113.273 25.3125L113.789 23.4531H114.57V25.4375H117.078V26.4531H114.57V31.4922C114.57 32.0286 114.693 32.4297 114.938 32.6953C115.188 32.9609 115.518 33.0938 115.93 33.0938ZM122.07 25.2969C123.091 25.2969 123.849 25.526 124.344 25.9844C124.839 26.4427 125.086 27.1745 125.086 28.1797V34H124.141L123.891 32.7344H123.828C123.589 33.0469 123.339 33.3099 123.078 33.5234C122.818 33.7318 122.516 33.8906 122.172 34C121.833 34.1042 121.417 34.1562 120.922 34.1562C120.401 34.1562 119.938 34.0651 119.531 33.8828C119.13 33.7005 118.812 33.4245 118.578 33.0547C118.349 32.6849 118.234 32.2161 118.234 31.6484C118.234 30.7943 118.573 30.138 119.25 29.6797C119.927 29.2214 120.958 28.9714 122.344 28.9297L123.82 28.8672V28.3438C123.82 27.6042 123.661 27.0859 123.344 26.7891C123.026 26.4922 122.578 26.3438 122 26.3438C121.552 26.3438 121.125 26.4089 120.719 26.5391C120.312 26.6693 119.927 26.8229 119.562 27L119.164 26.0156C119.549 25.8177 119.992 25.6484 120.492 25.5078C120.992 25.3672 121.518 25.2969 122.07 25.2969ZM123.805 29.7812L122.5 29.8359C121.432 29.8776 120.68 30.0521 120.242 30.3594C119.805 30.6667 119.586 31.1016 119.586 31.6641C119.586 32.1536 119.734 32.5156 120.031 32.75C120.328 32.9844 120.721 33.1016 121.211 33.1016C121.971 33.1016 122.594 32.8906 123.078 32.4688C123.562 32.0469 123.805 31.4141 123.805 30.5703V29.7812ZM131.812 25.2812C132.828 25.2812 133.596 25.5312 134.117 26.0312C134.638 26.526 134.898 27.3229 134.898 28.4219V34H133.617V28.5078C133.617 27.7943 133.453 27.2604 133.125 26.9062C132.802 26.5521 132.305 26.375 131.633 26.375C130.685 26.375 130.018 26.6432 129.633 27.1797C129.247 27.7161 129.055 28.4948 129.055 29.5156V34H127.758V25.4375H128.805L129 26.6719H129.07C129.253 26.3698 129.484 26.1172 129.766 25.9141C130.047 25.7057 130.362 25.5495 130.711 25.4453C131.06 25.3359 131.427 25.2812 131.812 25.2812ZM140.336 33.0938C140.549 33.0938 140.768 33.0755 140.992 33.0391C141.216 33.0026 141.398 32.9583 141.539 32.9062V33.9141C141.388 33.9818 141.177 34.0391 140.906 34.0859C140.641 34.1328 140.38 34.1562 140.125 34.1562C139.672 34.1562 139.26 34.0781 138.891 33.9219C138.521 33.7604 138.224 33.4896 138 33.1094C137.781 32.7292 137.672 32.2031 137.672 31.5312V26.4531H136.453V25.8203L137.68 25.3125L138.195 23.4531H138.977V25.4375H141.484V26.4531H138.977V31.4922C138.977 32.0286 139.099 32.4297 139.344 32.6953C139.594 32.9609 139.924 33.0938 140.336 33.0938Z" fill="#EFEFEF"/>
</svg>
