<svg width="218" height="56" viewBox="0 0 218 56" fill="none" xmlns="http://www.w3.org/2000/svg">
<path d="M26 37H21C19.8954 37 19 36.1046 19 35V28.2969C19 27.7852 19.1962 27.2929 19.5481 26.9215L26.5481 19.5326C27.3369 18.6999 28.663 18.6999 29.4519 19.5326L36.4519 26.9215C36.8038 27.2929 37 27.7852 37 28.2969V35C37 36.1046 36.1046 37 35 37H30M26 37V31.5C26 31.2239 26.2239 31 26.5 31H29.5C29.7761 31 30 31.2239 30 31.5V37M26 37H30" stroke="#AFF4C6" stroke-width="1.5"/>
<path d="M66.6328 28.1797C66.6328 29.4661 66.3984 30.5417 65.9297 31.4062C65.4609 32.2656 64.7812 32.9141 63.8906 33.3516C63.0052 33.7839 61.9297 34 60.6641 34H57.5625V22.5781H61.0078C62.1693 22.5781 63.1693 22.7917 64.0078 23.2188C64.8464 23.6406 65.4922 24.2682 65.9453 25.1016C66.4036 25.9297 66.6328 26.9557 66.6328 28.1797ZM65.2344 28.2266C65.2344 27.2005 65.0625 26.3542 64.7188 25.6875C64.3802 25.0208 63.8802 24.526 63.2188 24.2031C62.5625 23.875 61.7578 23.7109 60.8047 23.7109H58.8906V32.8594H60.5078C62.0807 32.8594 63.2604 32.4714 64.0469 31.6953C64.8385 30.9193 65.2344 29.763 65.2344 28.2266ZM72.1797 25.2969C73.2005 25.2969 73.9583 25.526 74.4531 25.9844C74.9479 26.4427 75.1953 27.1745 75.1953 28.1797V34H74.25L74 32.7344H73.9375C73.6979 33.0469 73.4479 33.3099 73.1875 33.5234C72.9271 33.7318 72.625 33.8906 72.2812 34C71.9427 34.1042 71.526 34.1562 71.0312 34.1562C70.5104 34.1562 70.0469 34.0651 69.6406 33.8828C69.2396 33.7005 68.9219 33.4245 68.6875 33.0547C68.4583 32.6849 68.3438 32.2161 68.3438 31.6484C68.3438 30.7943 68.6823 30.138 69.3594 29.6797C70.0365 29.2214 71.0677 28.9714 72.4531 28.9297L73.9297 28.8672V28.3438C73.9297 27.6042 73.7708 27.0859 73.4531 26.7891C73.1354 26.4922 72.6875 26.3438 72.1094 26.3438C71.6615 26.3438 71.2344 26.4089 70.8281 26.5391C70.4219 26.6693 70.0365 26.8229 69.6719 27L69.2734 26.0156C69.6589 25.8177 70.1016 25.6484 70.6016 25.5078C71.1016 25.3672 71.6276 25.2969 72.1797 25.2969ZM73.9141 29.7812L72.6094 29.8359C71.5417 29.8776 70.7891 30.0521 70.3516 30.3594C69.9141 30.6667 69.6953 31.1016 69.6953 31.6641C69.6953 32.1536 69.8438 32.5156 70.1406 32.75C70.4375 32.9844 70.8307 33.1016 71.3203 33.1016C72.0807 33.1016 72.7031 32.8906 73.1875 32.4688C73.6719 32.0469 73.9141 31.4141 73.9141 30.5703V29.7812ZM83.4062 31.6562C83.4062 32.2031 83.2682 32.6641 82.9922 33.0391C82.7214 33.4089 82.3307 33.6875 81.8203 33.875C81.3151 34.0625 80.7109 34.1562 80.0078 34.1562C79.4089 34.1562 78.8906 34.1094 78.4531 34.0156C78.0156 33.9219 77.6328 33.7891 77.3047 33.6172V32.4219C77.6536 32.5938 78.0703 32.75 78.5547 32.8906C79.0391 33.0312 79.5339 33.1016 80.0391 33.1016C80.7786 33.1016 81.3151 32.9818 81.6484 32.7422C81.9818 32.5026 82.1484 32.1771 82.1484 31.7656C82.1484 31.5312 82.0807 31.3255 81.9453 31.1484C81.8151 30.9661 81.5938 30.7917 81.2812 30.625C80.9688 30.4531 80.5365 30.2656 79.9844 30.0625C79.4375 29.8542 78.9635 29.6484 78.5625 29.4453C78.1667 29.237 77.8594 28.9844 77.6406 28.6875C77.4271 28.3906 77.3203 28.0052 77.3203 27.5312C77.3203 26.8073 77.612 26.2526 78.1953 25.8672C78.7839 25.4766 79.5547 25.2812 80.5078 25.2812C81.0234 25.2812 81.5052 25.3333 81.9531 25.4375C82.4062 25.5365 82.8281 25.6719 83.2188 25.8438L82.7812 26.8828C82.4271 26.7318 82.0495 26.6042 81.6484 26.5C81.2474 26.3958 80.8385 26.3438 80.4219 26.3438C79.8229 26.3438 79.362 26.4427 79.0391 26.6406C78.7214 26.8385 78.5625 27.1094 78.5625 27.4531C78.5625 27.7188 78.6354 27.9375 78.7812 28.1094C78.9323 28.2812 79.1719 28.4427 79.5 28.5938C79.8281 28.7448 80.2604 28.9219 80.7969 29.125C81.3333 29.3229 81.7969 29.5286 82.1875 29.7422C82.5781 29.9505 82.8776 30.2057 83.0859 30.5078C83.2995 30.8047 83.4062 31.1875 83.4062 31.6562ZM86.7891 21.8438V25.4766C86.7891 25.6849 86.7839 25.8958 86.7734 26.1094C86.763 26.3177 86.7448 26.5104 86.7188 26.6875H86.8047C86.9818 26.3854 87.2057 26.1328 87.4766 25.9297C87.7526 25.7214 88.0651 25.5651 88.4141 25.4609C88.763 25.3516 89.1328 25.2969 89.5234 25.2969C90.2109 25.2969 90.7839 25.4062 91.2422 25.625C91.7057 25.8438 92.0521 26.1823 92.2812 26.6406C92.5156 27.099 92.6328 27.6927 92.6328 28.4219V34H91.3516V28.5078C91.3516 27.7943 91.1875 27.2604 90.8594 26.9062C90.5365 26.5521 90.0391 26.375 89.3672 26.375C88.7318 26.375 88.224 26.4974 87.8438 26.7422C87.4688 26.9818 87.1979 27.3359 87.0312 27.8047C86.8698 28.2734 86.7891 28.8464 86.7891 29.5234V34H85.4922V21.8438H86.7891ZM96.6016 21.8438V24.8828C96.6016 25.2318 96.5911 25.5703 96.5703 25.8984C96.5547 26.2266 96.5417 26.4818 96.5312 26.6641H96.6016C96.8359 26.2786 97.1745 25.9531 97.6172 25.6875C98.0599 25.4219 98.625 25.2891 99.3125 25.2891C100.385 25.2891 101.24 25.6615 101.875 26.4062C102.516 27.1458 102.836 28.2474 102.836 29.7109C102.836 30.6745 102.69 31.487 102.398 32.1484C102.107 32.8099 101.695 33.3099 101.164 33.6484C100.633 33.987 100.005 34.1562 99.2812 34.1562C98.6042 34.1562 98.0469 34.0312 97.6094 33.7812C97.1771 33.526 96.8438 33.2161 96.6094 32.8516H96.5078L96.2422 34H95.3047V21.8438H96.6016ZM99.1016 26.375C98.4818 26.375 97.9896 26.4974 97.625 26.7422C97.2604 26.9818 96.9974 27.3464 96.8359 27.8359C96.6797 28.3203 96.6016 28.9349 96.6016 29.6797V29.75C96.6016 30.8281 96.7812 31.6536 97.1406 32.2266C97.5 32.7943 98.1536 33.0781 99.1016 33.0781C99.8984 33.0781 100.495 32.7865 100.891 32.2031C101.292 31.6198 101.492 30.7865 101.492 29.7031C101.492 28.599 101.294 27.7682 100.898 27.2109C100.508 26.6536 99.9089 26.375 99.1016 26.375ZM112.484 29.7031C112.484 30.4062 112.393 31.0339 112.211 31.5859C112.029 32.138 111.766 32.6042 111.422 32.9844C111.078 33.3646 110.661 33.6562 110.172 33.8594C109.688 34.0573 109.138 34.1562 108.523 34.1562C107.951 34.1562 107.424 34.0573 106.945 33.8594C106.471 33.6562 106.06 33.3646 105.711 32.9844C105.367 32.6042 105.099 32.138 104.906 31.5859C104.719 31.0339 104.625 30.4062 104.625 29.7031C104.625 28.7656 104.784 27.9688 105.102 27.3125C105.419 26.651 105.872 26.1484 106.461 25.8047C107.055 25.4557 107.76 25.2812 108.578 25.2812C109.359 25.2812 110.042 25.4557 110.625 25.8047C111.214 26.1536 111.669 26.6589 111.992 27.3203C112.32 27.9766 112.484 28.7708 112.484 29.7031ZM105.969 29.7031C105.969 30.3906 106.06 30.987 106.242 31.4922C106.424 31.9974 106.706 32.388 107.086 32.6641C107.466 32.9401 107.956 33.0781 108.555 33.0781C109.148 33.0781 109.635 32.9401 110.016 32.6641C110.401 32.388 110.685 31.9974 110.867 31.4922C111.049 30.987 111.141 30.3906 111.141 29.7031C111.141 29.0208 111.049 28.4323 110.867 27.9375C110.685 27.4375 110.404 27.0521 110.023 26.7812C109.643 26.5104 109.151 26.375 108.547 26.375C107.656 26.375 107.003 26.6693 106.586 27.2578C106.174 27.8464 105.969 28.6615 105.969 29.7031ZM117.93 25.2969C118.951 25.2969 119.708 25.526 120.203 25.9844C120.698 26.4427 120.945 27.1745 120.945 28.1797V34H120L119.75 32.7344H119.688C119.448 33.0469 119.198 33.3099 118.938 33.5234C118.677 33.7318 118.375 33.8906 118.031 34C117.693 34.1042 117.276 34.1562 116.781 34.1562C116.26 34.1562 115.797 34.0651 115.391 33.8828C114.99 33.7005 114.672 33.4245 114.438 33.0547C114.208 32.6849 114.094 32.2161 114.094 31.6484C114.094 30.7943 114.432 30.138 115.109 29.6797C115.786 29.2214 116.818 28.9714 118.203 28.9297L119.68 28.8672V28.3438C119.68 27.6042 119.521 27.0859 119.203 26.7891C118.885 26.4922 118.438 26.3438 117.859 26.3438C117.411 26.3438 116.984 26.4089 116.578 26.5391C116.172 26.6693 115.786 26.8229 115.422 27L115.023 26.0156C115.409 25.8177 115.852 25.6484 116.352 25.5078C116.852 25.3672 117.378 25.2969 117.93 25.2969ZM119.664 29.7812L118.359 29.8359C117.292 29.8776 116.539 30.0521 116.102 30.3594C115.664 30.6667 115.445 31.1016 115.445 31.6641C115.445 32.1536 115.594 32.5156 115.891 32.75C116.188 32.9844 116.581 33.1016 117.07 33.1016C117.831 33.1016 118.453 32.8906 118.938 32.4688C119.422 32.0469 119.664 31.4141 119.664 30.5703V29.7812ZM127.508 25.2812C127.68 25.2812 127.859 25.2917 128.047 25.3125C128.234 25.3281 128.401 25.3516 128.547 25.3828L128.383 26.5859C128.242 26.5495 128.086 26.5208 127.914 26.5C127.742 26.4792 127.581 26.4688 127.43 26.4688C127.086 26.4688 126.76 26.5391 126.453 26.6797C126.151 26.8151 125.885 27.013 125.656 27.2734C125.427 27.5286 125.247 27.8385 125.117 28.2031C124.987 28.5625 124.922 28.9635 124.922 29.4062V34H123.617V25.4375H124.695L124.836 27.0156H124.891C125.068 26.6979 125.281 26.4089 125.531 26.1484C125.781 25.8828 126.07 25.6719 126.398 25.5156C126.732 25.3594 127.102 25.2812 127.508 25.2812ZM133.211 34.1562C132.128 34.1562 131.268 33.7865 130.633 33.0469C130.003 32.3073 129.688 31.2083 129.688 29.75C129.688 28.276 130.01 27.1641 130.656 26.4141C131.302 25.6589 132.161 25.2812 133.234 25.2812C133.688 25.2812 134.083 25.3411 134.422 25.4609C134.76 25.5807 135.052 25.7422 135.297 25.9453C135.542 26.1432 135.747 26.3698 135.914 26.625H136.008C135.987 26.4635 135.966 26.2422 135.945 25.9609C135.924 25.6797 135.914 25.4505 135.914 25.2734V21.8438H137.211V34H136.164L135.969 32.7812H135.914C135.753 33.0365 135.547 33.2682 135.297 33.4766C135.052 33.6849 134.758 33.8516 134.414 33.9766C134.076 34.0964 133.674 34.1562 133.211 34.1562ZM133.414 33.0781C134.331 33.0781 134.979 32.8177 135.359 32.2969C135.74 31.776 135.93 31.0026 135.93 29.9766V29.7422C135.93 28.6536 135.747 27.8177 135.383 27.2344C135.023 26.651 134.367 26.3594 133.414 26.3594C132.617 26.3594 132.021 26.6667 131.625 27.2812C131.229 27.8906 131.031 28.724 131.031 29.7812C131.031 30.8333 131.227 31.6458 131.617 32.2188C132.013 32.7917 132.612 33.0781 133.414 33.0781Z" fill="#EFEFEF"/>
</svg>
