<svg width="218" height="56" viewBox="0 0 218 56" fill="none" xmlns="http://www.w3.org/2000/svg">
<path d="M29 18L19 30H28L27 38L37 26H28L29 18Z" stroke="#AFF4C6" stroke-width="1.5" stroke-linecap="round" stroke-linejoin="round"/>
<path d="M64.7266 34L63.3203 30.375H58.7422L57.3438 34H56L60.4688 22.5312H61.6641L66.1016 34H64.7266ZM62.9219 29.1953L61.5859 25.5938C61.5547 25.5 61.5026 25.3464 61.4297 25.1328C61.362 24.9193 61.2917 24.6979 61.2188 24.4688C61.1458 24.2396 61.0859 24.0547 61.0391 23.9141C60.987 24.1276 60.9297 24.3411 60.8672 24.5547C60.8099 24.763 60.7526 24.9583 60.6953 25.1406C60.638 25.3177 60.5885 25.4688 60.5469 25.5938L59.1875 29.1953H62.9219ZM70.5391 34.1562C69.4557 34.1562 68.5964 33.7865 67.9609 33.0469C67.3307 32.3073 67.0156 31.2083 67.0156 29.75C67.0156 28.276 67.3385 27.1641 67.9844 26.4141C68.6302 25.6589 69.4896 25.2812 70.5625 25.2812C71.0156 25.2812 71.4115 25.3411 71.75 25.4609C72.0885 25.5807 72.3802 25.7422 72.625 25.9453C72.8698 26.1432 73.0755 26.3698 73.2422 26.625H73.3359C73.3151 26.4635 73.2943 26.2422 73.2734 25.9609C73.2526 25.6797 73.2422 25.4505 73.2422 25.2734V21.8438H74.5391V34H73.4922L73.2969 32.7812H73.2422C73.0807 33.0365 72.875 33.2682 72.625 33.4766C72.3802 33.6849 72.0859 33.8516 71.7422 33.9766C71.4036 34.0964 71.0026 34.1562 70.5391 34.1562ZM70.7422 33.0781C71.6589 33.0781 72.3073 32.8177 72.6875 32.2969C73.0677 31.776 73.2578 31.0026 73.2578 29.9766V29.7422C73.2578 28.6536 73.0755 27.8177 72.7109 27.2344C72.3516 26.651 71.6953 26.3594 70.7422 26.3594C69.9453 26.3594 69.349 26.6667 68.9531 27.2812C68.5573 27.8906 68.3594 28.724 68.3594 29.7812C68.3594 30.8333 68.5547 31.6458 68.9453 32.2188C69.3411 32.7917 69.9401 33.0781 70.7422 33.0781ZM91.5469 28.2734C91.5469 29.1536 91.4349 29.9557 91.2109 30.6797C90.987 31.3984 90.6536 32.0182 90.2109 32.5391C89.7734 33.0547 89.2292 33.4531 88.5781 33.7344C87.9271 34.0156 87.1719 34.1562 86.3125 34.1562C85.4271 34.1562 84.6536 34.0156 83.9922 33.7344C83.3359 33.4531 82.7891 33.0521 82.3516 32.5312C81.9193 32.0104 81.5938 31.388 81.375 30.6641C81.1615 29.9401 81.0547 29.138 81.0547 28.2578C81.0547 27.0911 81.2474 26.0677 81.6328 25.1875C82.0182 24.3073 82.6016 23.6224 83.3828 23.1328C84.1693 22.6432 85.1536 22.3984 86.3359 22.3984C87.4661 22.3984 88.4167 22.6406 89.1875 23.125C89.9635 23.6094 90.5495 24.2917 90.9453 25.1719C91.3464 26.0469 91.5469 27.0807 91.5469 28.2734ZM82.4531 28.2734C82.4531 29.2422 82.5911 30.0807 82.8672 30.7891C83.1432 31.4974 83.5651 32.0443 84.1328 32.4297C84.7057 32.8151 85.4323 33.0078 86.3125 33.0078C87.1979 33.0078 87.9219 32.8151 88.4844 32.4297C89.0521 32.0443 89.4714 31.4974 89.7422 30.7891C90.013 30.0807 90.1484 29.2422 90.1484 28.2734C90.1484 26.7995 89.8385 25.6484 89.2188 24.8203C88.6042 23.987 87.6432 23.5703 86.3359 23.5703C85.4505 23.5703 84.7214 23.7604 84.1484 24.1406C83.5755 24.5208 83.1484 25.0625 82.8672 25.7656C82.5911 26.4635 82.4531 27.2995 82.4531 28.2734ZM97.9219 25.2812C98.9896 25.2812 99.8411 25.6484 100.477 26.3828C101.112 27.1172 101.43 28.2214 101.43 29.6953C101.43 30.6693 101.284 31.487 100.992 32.1484C100.701 32.8099 100.289 33.3099 99.7578 33.6484C99.2318 33.987 98.6094 34.1562 97.8906 34.1562C97.4375 34.1562 97.0391 34.0964 96.6953 33.9766C96.3516 33.8568 96.0573 33.6953 95.8125 33.4922C95.5677 33.2891 95.3646 33.0677 95.2031 32.8281H95.1094C95.125 33.0312 95.1432 33.276 95.1641 33.5625C95.1901 33.849 95.2031 34.099 95.2031 34.3125V37.8281H93.8984V25.4375H94.9688L95.1406 26.7031H95.2031C95.3698 26.4427 95.5729 26.2057 95.8125 25.9922C96.0521 25.7734 96.3438 25.6016 96.6875 25.4766C97.0365 25.3464 97.4479 25.2812 97.9219 25.2812ZM97.6953 26.375C97.1016 26.375 96.6224 26.4896 96.2578 26.7188C95.8984 26.9479 95.6354 27.2917 95.4688 27.75C95.3021 28.2031 95.2135 28.7734 95.2031 29.4609V29.7109C95.2031 30.4349 95.2812 31.0469 95.4375 31.5469C95.599 32.0469 95.862 32.4271 96.2266 32.6875C96.5964 32.9479 97.0911 33.0781 97.7109 33.0781C98.2422 33.0781 98.6849 32.9349 99.0391 32.6484C99.3932 32.362 99.6562 31.9635 99.8281 31.4531C100.005 30.9375 100.094 30.3464 100.094 29.6797C100.094 28.6693 99.8958 27.8672 99.5 27.2734C99.1094 26.6745 98.5078 26.375 97.6953 26.375ZM106.461 33.0938C106.674 33.0938 106.893 33.0755 107.117 33.0391C107.341 33.0026 107.523 32.9583 107.664 32.9062V33.9141C107.513 33.9818 107.302 34.0391 107.031 34.0859C106.766 34.1328 106.505 34.1562 106.25 34.1562C105.797 34.1562 105.385 34.0781 105.016 33.9219C104.646 33.7604 104.349 33.4896 104.125 33.1094C103.906 32.7292 103.797 32.2031 103.797 31.5312V26.4531H102.578V25.8203L103.805 25.3125L104.32 23.4531H105.102V25.4375H107.609V26.4531H105.102V31.4922C105.102 32.0286 105.224 32.4297 105.469 32.6953C105.719 32.9609 106.049 33.0938 106.461 33.0938ZM110.695 25.4375V34H109.398V25.4375H110.695ZM110.062 22.2344C110.276 22.2344 110.458 22.3047 110.609 22.4453C110.766 22.5807 110.844 22.7943 110.844 23.0859C110.844 23.3724 110.766 23.5859 110.609 23.7266C110.458 23.8672 110.276 23.9375 110.062 23.9375C109.839 23.9375 109.651 23.8672 109.5 23.7266C109.354 23.5859 109.281 23.3724 109.281 23.0859C109.281 22.7943 109.354 22.5807 109.5 22.4453C109.651 22.3047 109.839 22.2344 110.062 22.2344ZM122.742 25.2812C123.685 25.2812 124.396 25.5286 124.875 26.0234C125.354 26.513 125.594 27.3021 125.594 28.3906V34H124.312V28.4531C124.312 27.7604 124.161 27.2422 123.859 26.8984C123.562 26.5495 123.12 26.375 122.531 26.375C121.703 26.375 121.102 26.6146 120.727 27.0938C120.352 27.5729 120.164 28.2786 120.164 29.2109V34H118.875V28.4531C118.875 27.9896 118.807 27.6042 118.672 27.2969C118.542 26.9896 118.344 26.7604 118.078 26.6094C117.818 26.4531 117.487 26.375 117.086 26.375C116.518 26.375 116.062 26.4922 115.719 26.7266C115.375 26.9609 115.125 27.3099 114.969 27.7734C114.818 28.2318 114.742 28.7969 114.742 29.4688V34H113.445V25.4375H114.492L114.688 26.6484H114.758C114.93 26.3516 115.146 26.1016 115.406 25.8984C115.667 25.6953 115.958 25.5417 116.281 25.4375C116.604 25.3333 116.948 25.2812 117.312 25.2812C117.964 25.2812 118.508 25.4036 118.945 25.6484C119.388 25.888 119.708 26.2552 119.906 26.75H119.977C120.258 26.2552 120.643 25.888 121.133 25.6484C121.622 25.4036 122.159 25.2812 122.742 25.2812ZM129.555 25.4375V34H128.258V25.4375H129.555ZM128.922 22.2344C129.135 22.2344 129.318 22.3047 129.469 22.4453C129.625 22.5807 129.703 22.7943 129.703 23.0859C129.703 23.3724 129.625 23.5859 129.469 23.7266C129.318 23.8672 129.135 23.9375 128.922 23.9375C128.698 23.9375 128.51 23.8672 128.359 23.7266C128.214 23.5859 128.141 23.3724 128.141 23.0859C128.141 22.7943 128.214 22.5807 128.359 22.4453C128.51 22.3047 128.698 22.2344 128.922 22.2344ZM137.805 34H131.562V33.1406L136.258 26.4531H131.859V25.4375H137.703V26.3984L133.07 32.9922H137.805V34ZM143.102 25.2812C143.831 25.2812 144.456 25.4427 144.977 25.7656C145.497 26.0885 145.896 26.5417 146.172 27.125C146.448 27.7031 146.586 28.3802 146.586 29.1562V29.9609H140.672C140.688 30.9661 140.938 31.7318 141.422 32.2578C141.906 32.7839 142.589 33.0469 143.469 33.0469C144.01 33.0469 144.49 32.9974 144.906 32.8984C145.323 32.7995 145.755 32.6536 146.203 32.4609V33.6016C145.771 33.7943 145.341 33.9349 144.914 34.0234C144.492 34.112 143.992 34.1562 143.414 34.1562C142.591 34.1562 141.872 33.9896 141.258 33.6562C140.648 33.3177 140.174 32.8229 139.836 32.1719C139.497 31.5208 139.328 30.724 139.328 29.7812C139.328 28.8594 139.482 28.0625 139.789 27.3906C140.102 26.7135 140.539 26.1927 141.102 25.8281C141.669 25.4635 142.336 25.2812 143.102 25.2812ZM143.086 26.3438C142.393 26.3438 141.841 26.5703 141.43 27.0234C141.018 27.4766 140.773 28.1094 140.695 28.9219H145.227C145.221 28.4115 145.141 27.9635 144.984 27.5781C144.833 27.1875 144.602 26.8854 144.289 26.6719C143.977 26.4531 143.576 26.3438 143.086 26.3438ZM152.68 25.2812C152.852 25.2812 153.031 25.2917 153.219 25.3125C153.406 25.3281 153.573 25.3516 153.719 25.3828L153.555 26.5859C153.414 26.5495 153.258 26.5208 153.086 26.5C152.914 26.4792 152.753 26.4688 152.602 26.4688C152.258 26.4688 151.932 26.5391 151.625 26.6797C151.323 26.8151 151.057 27.013 150.828 27.2734C150.599 27.5286 150.419 27.8385 150.289 28.2031C150.159 28.5625 150.094 28.9635 150.094 29.4062V34H148.789V25.4375H149.867L150.008 27.0156H150.062C150.24 26.6979 150.453 26.4089 150.703 26.1484C150.953 25.8828 151.242 25.6719 151.57 25.5156C151.904 25.3594 152.273 25.2812 152.68 25.2812Z" fill="#EFEFEF"/>
</svg>
