<svg width="218" height="56" viewBox="0 0 218 56" fill="none" xmlns="http://www.w3.org/2000/svg">
<rect width="56" height="56" rx="16" fill="#14AE5C"/>
<path d="M78.9141 18.6797C78.9141 19.9661 78.6667 21.0417 78.1719 21.9062C77.6823 22.7656 76.9714 23.4141 76.0391 23.8516C75.1068 24.2839 73.9844 24.5 72.6719 24.5H69.4375V13.0781H73.0234C74.2214 13.0781 75.2604 13.2917 76.1406 13.7188C77.0208 14.1406 77.7031 14.7682 78.1875 15.6016C78.6719 16.4297 78.9141 17.4557 78.9141 18.6797ZM76.3984 18.7422C76.3984 17.8984 76.2734 17.2057 76.0234 16.6641C75.7786 16.1172 75.4141 15.7135 74.9297 15.4531C74.4505 15.1927 73.8568 15.0625 73.1484 15.0625H71.8594V22.5H72.8984C74.0807 22.5 74.9583 22.1849 75.5312 21.5547C76.1094 20.9245 76.3984 19.987 76.3984 18.7422ZM89.1094 15.7656V24.5H87.2812L86.9609 23.3828H86.8359C86.6484 23.6797 86.4141 23.9219 86.1328 24.1094C85.8516 24.2969 85.5417 24.4349 85.2031 24.5234C84.8646 24.612 84.513 24.6562 84.1484 24.6562C83.5234 24.6562 82.9792 24.5469 82.5156 24.3281C82.0521 24.1042 81.6901 23.7578 81.4297 23.2891C81.1745 22.8203 81.0469 22.2109 81.0469 21.4609V15.7656H83.4297V20.8672C83.4297 21.4922 83.5417 21.9635 83.7656 22.2812C83.9896 22.599 84.3464 22.7578 84.8359 22.7578C85.3203 22.7578 85.7005 22.6484 85.9766 22.4297C86.2526 22.2057 86.4453 21.8802 86.5547 21.4531C86.6693 21.0208 86.7266 20.4948 86.7266 19.875V15.7656H89.1094ZM95.1562 24.6562C94.2917 24.6562 93.5547 24.5 92.9453 24.1875C92.3359 23.8698 91.8724 23.3802 91.5547 22.7188C91.237 22.0573 91.0781 21.2109 91.0781 20.1797C91.0781 19.112 91.2578 18.2422 91.6172 17.5703C91.9818 16.8932 92.4844 16.3958 93.125 16.0781C93.7708 15.7604 94.5182 15.6016 95.3672 15.6016C95.9714 15.6016 96.4922 15.6615 96.9297 15.7812C97.3724 15.8958 97.7578 16.0339 98.0859 16.1953L97.3828 18.0391C97.0078 17.888 96.6589 17.7656 96.3359 17.6719C96.013 17.5729 95.6901 17.5234 95.3672 17.5234C94.9505 17.5234 94.6042 17.6224 94.3281 17.8203C94.0521 18.013 93.8464 18.3047 93.7109 18.6953C93.5755 19.0859 93.5078 19.5755 93.5078 20.1641C93.5078 20.7422 93.5807 21.2214 93.7266 21.6016C93.8724 21.9818 94.0833 22.2656 94.3594 22.4531C94.6354 22.6354 94.9714 22.7266 95.3672 22.7266C95.862 22.7266 96.3021 22.6615 96.6875 22.5312C97.0729 22.3958 97.4479 22.2083 97.8125 21.9688V24.0078C97.4479 24.237 97.0651 24.401 96.6641 24.5C96.2682 24.6042 95.7656 24.6562 95.1562 24.6562ZM102.227 12.3438V17.7812C102.227 18.1094 102.214 18.4375 102.188 18.7656C102.161 19.0938 102.133 19.4219 102.102 19.75H102.133C102.294 19.5208 102.458 19.2943 102.625 19.0703C102.797 18.8464 102.979 18.6302 103.172 18.4219L105.617 15.7656H108.305L104.836 19.5547L108.516 24.5H105.766L103.25 20.9609L102.227 21.7812V24.5H99.8438V12.3438H102.227ZM123.406 13.0781V20.4688C123.406 21.2552 123.232 21.9661 122.883 22.6016C122.539 23.2318 122.016 23.7318 121.312 24.1016C120.615 24.4714 119.734 24.6562 118.672 24.6562C117.161 24.6562 116.01 24.2708 115.219 23.5C114.427 22.7292 114.031 21.7083 114.031 20.4375V13.0781H116.445V20.0703C116.445 21.013 116.638 21.6745 117.023 22.0547C117.409 22.4349 117.979 22.625 118.734 22.625C119.266 22.625 119.695 22.5339 120.023 22.3516C120.357 22.1693 120.602 21.888 120.758 21.5078C120.914 21.1276 120.992 20.6432 120.992 20.0547V13.0781H123.406ZM126.203 24.5V13.0781H128.625V24.5H126.203Z" fill="#EFEFEF"/>
<path d="M77.3037 39.4072C77.3037 40.5329 77.0986 41.474 76.6885 42.2305C76.2783 42.9824 75.6836 43.5498 74.9043 43.9326C74.1296 44.3109 73.1885 44.5 72.0811 44.5H69.3672V34.5059H72.3818C73.3981 34.5059 74.2731 34.6927 75.0068 35.0664C75.7406 35.4355 76.3057 35.9847 76.7021 36.7139C77.1032 37.4385 77.3037 38.3363 77.3037 39.4072ZM76.0801 39.4482C76.0801 38.5505 75.9297 37.8099 75.6289 37.2266C75.3327 36.6432 74.8952 36.2103 74.3164 35.9277C73.7422 35.6406 73.0381 35.4971 72.2041 35.4971H70.5293V43.502H71.9443C73.3206 43.502 74.3529 43.1624 75.041 42.4834C75.7337 41.8044 76.0801 40.7926 76.0801 39.4482ZM85.541 37.0078V44.5H84.6113L84.4473 43.4473H84.3857C84.2308 43.707 84.0303 43.9258 83.7842 44.1035C83.5381 44.2812 83.2601 44.4134 82.9502 44.5C82.6449 44.5911 82.319 44.6367 81.9727 44.6367C81.3802 44.6367 80.8835 44.541 80.4824 44.3496C80.0814 44.1582 79.7783 43.862 79.5732 43.4609C79.3727 43.0599 79.2725 42.5449 79.2725 41.916V37.0078H80.4209V41.834C80.4209 42.4583 80.5622 42.9255 80.8447 43.2354C81.1273 43.5407 81.5579 43.6934 82.1367 43.6934C82.6927 43.6934 83.1348 43.5885 83.4629 43.3789C83.7956 43.1693 84.0348 42.8617 84.1807 42.4561C84.3265 42.0459 84.3994 41.5446 84.3994 40.9521V37.0078H85.541ZM90.9414 44.6367C90.2669 44.6367 89.6722 44.4977 89.1572 44.2197C88.6423 43.9417 88.2412 43.5179 87.9541 42.9482C87.667 42.3786 87.5234 41.6608 87.5234 40.7949C87.5234 39.888 87.6738 39.1475 87.9746 38.5732C88.2799 37.9945 88.6992 37.5661 89.2324 37.2881C89.7656 37.0101 90.3717 36.8711 91.0508 36.8711C91.4245 36.8711 91.7845 36.9098 92.1309 36.9873C92.4818 37.0602 92.7689 37.1536 92.9922 37.2676L92.6504 38.2178C92.4225 38.1266 92.1582 38.0446 91.8574 37.9717C91.5612 37.8988 91.2832 37.8623 91.0234 37.8623C90.5039 37.8623 90.071 37.974 89.7246 38.1973C89.3828 38.4206 89.1253 38.7487 88.9521 39.1816C88.7835 39.6146 88.6992 40.1478 88.6992 40.7812C88.6992 41.3874 88.7812 41.9046 88.9453 42.333C89.1139 42.7614 89.3623 43.0895 89.6904 43.3174C90.0231 43.5407 90.4378 43.6523 90.9346 43.6523C91.3311 43.6523 91.6888 43.6113 92.0078 43.5293C92.3268 43.4427 92.6162 43.3424 92.876 43.2285V44.2402C92.6253 44.3678 92.3451 44.4658 92.0352 44.5342C91.7298 44.6025 91.3652 44.6367 90.9414 44.6367ZM95.7812 33.8633V39.3867C95.7812 39.569 95.7744 39.7923 95.7607 40.0566C95.7471 40.3164 95.7357 40.5465 95.7266 40.7471H95.7744C95.8701 40.6286 96.0091 40.4531 96.1914 40.2207C96.3783 39.9883 96.5355 39.8014 96.6631 39.6602L99.1514 37.0078H100.484L97.4697 40.207L100.703 44.5H99.3359L96.6904 40.9521L95.7812 41.7861V44.5H94.6533V33.8633H95.7812ZM108.195 37.0078V44.5H107.266L107.102 43.4473H107.04C106.885 43.707 106.685 43.9258 106.438 44.1035C106.192 44.2812 105.914 44.4134 105.604 44.5C105.299 44.5911 104.973 44.6367 104.627 44.6367C104.035 44.6367 103.538 44.541 103.137 44.3496C102.736 44.1582 102.433 43.862 102.228 43.4609C102.027 43.0599 101.927 42.5449 101.927 41.916V37.0078H103.075V41.834C103.075 42.4583 103.216 42.9255 103.499 43.2354C103.782 43.5407 104.212 43.6934 104.791 43.6934C105.347 43.6934 105.789 43.5885 106.117 43.3789C106.45 43.1693 106.689 42.8617 106.835 42.4561C106.981 42.0459 107.054 41.5446 107.054 40.9521V37.0078H108.195ZM111.729 37.0078V44.5H110.595V37.0078H111.729ZM111.176 34.2051C111.363 34.2051 111.522 34.2666 111.654 34.3896C111.791 34.5081 111.859 34.695 111.859 34.9502C111.859 35.2008 111.791 35.3877 111.654 35.5107C111.522 35.6338 111.363 35.6953 111.176 35.6953C110.98 35.6953 110.816 35.6338 110.684 35.5107C110.556 35.3877 110.492 35.2008 110.492 34.9502C110.492 34.695 110.556 34.5081 110.684 34.3896C110.816 34.2666 110.98 34.2051 111.176 34.2051ZM124.69 39.5098C124.69 39.9427 124.64 40.3665 124.54 40.7812C124.444 41.1914 124.296 41.5628 124.096 41.8955C123.895 42.2236 123.645 42.4857 123.344 42.6816C123.048 42.8776 122.697 42.9756 122.291 42.9756C121.867 42.9756 121.53 42.8525 121.279 42.6064C121.029 42.3604 120.878 42.0687 120.828 41.7314H120.767C120.593 42.0915 120.338 42.39 120.001 42.627C119.668 42.8594 119.258 42.9756 118.771 42.9756C118.06 42.9756 117.51 42.7409 117.123 42.2715C116.74 41.7975 116.549 41.1686 116.549 40.3848C116.549 39.7741 116.67 39.234 116.911 38.7646C117.157 38.2907 117.501 37.9193 117.943 37.6504C118.39 37.377 118.916 37.2402 119.522 37.2402C119.928 37.2402 120.322 37.2744 120.705 37.3428C121.088 37.4111 121.393 37.4863 121.621 37.5684L121.484 40.3232C121.48 40.4919 121.475 40.6217 121.471 40.7129C121.466 40.7995 121.464 40.8678 121.464 40.918C121.464 41.4102 121.55 41.7428 121.724 41.916C121.901 42.0846 122.116 42.1689 122.366 42.1689C122.672 42.1689 122.927 42.0505 123.132 41.8135C123.341 41.5719 123.501 41.2507 123.61 40.8496C123.72 40.444 123.774 39.9951 123.774 39.5029C123.774 38.6325 123.599 37.8896 123.248 37.2744C122.897 36.6592 122.412 36.1898 121.792 35.8662C121.177 35.5426 120.468 35.3809 119.666 35.3809C118.868 35.3809 118.16 35.5062 117.54 35.7568C116.925 36.0075 116.403 36.363 115.975 36.8232C115.551 37.279 115.229 37.8213 115.011 38.4502C114.792 39.0791 114.683 39.7741 114.683 40.5352C114.683 41.4648 114.847 42.2555 115.175 42.9072C115.507 43.5589 115.993 44.0557 116.631 44.3975C117.273 44.7347 118.055 44.9033 118.976 44.9033C119.532 44.9033 120.067 44.8418 120.582 44.7188C121.097 44.5957 121.557 44.4567 121.963 44.3018V45.1904C121.562 45.359 121.113 45.4958 120.616 45.6006C120.119 45.71 119.573 45.7646 118.976 45.7646C117.877 45.7646 116.938 45.5573 116.159 45.1426C115.38 44.7324 114.783 44.14 114.368 43.3652C113.953 42.5905 113.746 41.6608 113.746 40.5762C113.746 39.6966 113.881 38.8877 114.149 38.1494C114.423 37.4111 114.815 36.7708 115.325 36.2285C115.84 35.6862 116.462 35.2669 117.191 34.9707C117.925 34.6699 118.75 34.5195 119.666 34.5195C120.646 34.5195 121.512 34.7223 122.264 35.1279C123.02 35.529 123.613 36.1032 124.041 36.8506C124.474 37.5934 124.69 38.4798 124.69 39.5098ZM117.567 40.4121C117.567 41.0182 117.688 41.4626 117.93 41.7451C118.171 42.0277 118.506 42.1689 118.935 42.1689C119.463 42.1689 119.851 41.9707 120.097 41.5742C120.347 41.1777 120.491 40.6536 120.527 40.002L120.609 38.2178C120.477 38.1768 120.315 38.1426 120.124 38.1152C119.937 38.0833 119.741 38.0674 119.536 38.0674C119.067 38.0674 118.686 38.179 118.395 38.4023C118.107 38.6257 117.898 38.915 117.766 39.2705C117.633 39.626 117.567 40.0065 117.567 40.4121ZM129.353 44.6367C128.405 44.6367 127.653 44.3132 127.097 43.666C126.545 43.0189 126.27 42.0573 126.27 40.7812C126.27 39.4915 126.552 38.5186 127.117 37.8623C127.682 37.2015 128.434 36.8711 129.373 36.8711C129.77 36.8711 130.116 36.9235 130.412 37.0283C130.708 37.1331 130.964 37.2744 131.178 37.4521C131.392 37.6253 131.572 37.8236 131.718 38.0469H131.8C131.782 37.9056 131.763 37.7119 131.745 37.4658C131.727 37.2197 131.718 37.0192 131.718 36.8643V33.8633H132.853V44.5H131.937L131.766 43.4336H131.718C131.576 43.6569 131.396 43.8597 131.178 44.042C130.964 44.2243 130.706 44.3701 130.405 44.4795C130.109 44.5843 129.758 44.6367 129.353 44.6367ZM129.53 43.6934C130.332 43.6934 130.9 43.4655 131.232 43.0098C131.565 42.554 131.731 41.8773 131.731 40.9795V40.7744C131.731 39.8219 131.572 39.0905 131.253 38.5801C130.938 38.0697 130.364 37.8145 129.53 37.8145C128.833 37.8145 128.311 38.0833 127.965 38.6211C127.618 39.1543 127.445 39.8835 127.445 40.8086C127.445 41.7292 127.616 42.4401 127.958 42.9414C128.304 43.4427 128.828 43.6934 129.53 43.6934ZM138.144 36.8711C138.782 36.8711 139.328 37.0124 139.784 37.2949C140.24 37.5775 140.589 37.974 140.83 38.4844C141.072 38.9902 141.192 39.5827 141.192 40.2617V40.9658H136.018C136.031 41.8454 136.25 42.5153 136.674 42.9756C137.098 43.4359 137.695 43.666 138.465 43.666C138.939 43.666 139.358 43.6227 139.723 43.5361C140.087 43.4495 140.465 43.3219 140.857 43.1533V44.1514C140.479 44.32 140.103 44.443 139.729 44.5205C139.36 44.598 138.923 44.6367 138.417 44.6367C137.697 44.6367 137.068 44.4909 136.53 44.1992C135.997 43.903 135.582 43.4701 135.286 42.9004C134.99 42.3307 134.842 41.6335 134.842 40.8086C134.842 40.002 134.976 39.3047 135.245 38.7168C135.519 38.1243 135.901 37.6686 136.394 37.3496C136.89 37.0306 137.474 36.8711 138.144 36.8711ZM138.13 37.8008C137.524 37.8008 137.041 37.999 136.681 38.3955C136.321 38.792 136.106 39.3457 136.038 40.0566H140.003C139.998 39.61 139.928 39.2181 139.791 38.8809C139.659 38.5391 139.456 38.2747 139.183 38.0879C138.909 37.8965 138.558 37.8008 138.13 37.8008ZM151.255 36.8711C152.08 36.8711 152.702 37.0876 153.121 37.5205C153.54 37.9489 153.75 38.6393 153.75 39.5918V44.5H152.629V39.6465C152.629 39.0404 152.497 38.5869 152.232 38.2861C151.973 37.9808 151.585 37.8281 151.07 37.8281C150.346 37.8281 149.819 38.0378 149.491 38.457C149.163 38.8763 148.999 39.4938 148.999 40.3096V44.5H147.871V39.6465C147.871 39.2409 147.812 38.9036 147.693 38.6348C147.579 38.3659 147.406 38.1654 147.174 38.0332C146.946 37.8965 146.657 37.8281 146.306 37.8281C145.809 37.8281 145.41 37.9307 145.109 38.1357C144.809 38.3408 144.59 38.6462 144.453 39.0518C144.321 39.4528 144.255 39.9473 144.255 40.5352V44.5H143.12V37.0078H144.036L144.207 38.0674H144.269C144.419 37.8076 144.608 37.5889 144.836 37.4111C145.064 37.2334 145.319 37.099 145.602 37.0078C145.884 36.9167 146.185 36.8711 146.504 36.8711C147.074 36.8711 147.55 36.9782 147.933 37.1924C148.32 37.402 148.6 37.7233 148.773 38.1562H148.835C149.081 37.7233 149.418 37.402 149.847 37.1924C150.275 36.9782 150.744 36.8711 151.255 36.8711ZM162.541 40.7402C162.541 41.3555 162.461 41.9046 162.302 42.3877C162.142 42.8708 161.912 43.2786 161.611 43.6113C161.311 43.944 160.946 44.1992 160.518 44.377C160.094 44.5501 159.613 44.6367 159.075 44.6367C158.574 44.6367 158.114 44.5501 157.694 44.377C157.28 44.1992 156.92 43.944 156.614 43.6113C156.313 43.2786 156.079 42.8708 155.91 42.3877C155.746 41.9046 155.664 41.3555 155.664 40.7402C155.664 39.9199 155.803 39.2227 156.081 38.6484C156.359 38.0697 156.756 37.6299 157.271 37.3291C157.79 37.0238 158.408 36.8711 159.123 36.8711C159.807 36.8711 160.404 37.0238 160.914 37.3291C161.429 37.6344 161.828 38.0765 162.11 38.6553C162.397 39.2295 162.541 39.9245 162.541 40.7402ZM156.84 40.7402C156.84 41.3418 156.92 41.8636 157.079 42.3057C157.239 42.7477 157.485 43.0895 157.817 43.3311C158.15 43.5726 158.578 43.6934 159.103 43.6934C159.622 43.6934 160.048 43.5726 160.381 43.3311C160.718 43.0895 160.966 42.7477 161.126 42.3057C161.285 41.8636 161.365 41.3418 161.365 40.7402C161.365 40.1432 161.285 39.6283 161.126 39.1953C160.966 38.7578 160.72 38.4206 160.388 38.1836C160.055 37.9466 159.624 37.8281 159.096 37.8281C158.316 37.8281 157.744 38.0856 157.38 38.6006C157.02 39.1156 156.84 39.8288 156.84 40.7402ZM164.332 43.7891C164.332 43.4701 164.41 43.2445 164.564 43.1123C164.719 42.9756 164.909 42.9072 165.132 42.9072C165.364 42.9072 165.56 42.9756 165.72 43.1123C165.879 43.2445 165.959 43.4701 165.959 43.7891C165.959 44.1035 165.879 44.3337 165.72 44.4795C165.56 44.6208 165.364 44.6914 165.132 44.6914C164.909 44.6914 164.719 44.6208 164.564 44.4795C164.41 44.3337 164.332 44.1035 164.332 43.7891ZM171.182 44.6367C170.507 44.6367 169.912 44.4977 169.397 44.2197C168.882 43.9417 168.481 43.5179 168.194 42.9482C167.907 42.3786 167.764 41.6608 167.764 40.7949C167.764 39.888 167.914 39.1475 168.215 38.5732C168.52 37.9945 168.939 37.5661 169.473 37.2881C170.006 37.0101 170.612 36.8711 171.291 36.8711C171.665 36.8711 172.025 36.9098 172.371 36.9873C172.722 37.0602 173.009 37.1536 173.232 37.2676L172.891 38.2178C172.663 38.1266 172.398 38.0446 172.098 37.9717C171.801 37.8988 171.523 37.8623 171.264 37.8623C170.744 37.8623 170.311 37.974 169.965 38.1973C169.623 38.4206 169.366 38.7487 169.192 39.1816C169.024 39.6146 168.939 40.1478 168.939 40.7812C168.939 41.3874 169.021 41.9046 169.186 42.333C169.354 42.7614 169.603 43.0895 169.931 43.3174C170.263 43.5407 170.678 43.6523 171.175 43.6523C171.571 43.6523 171.929 43.6113 172.248 43.5293C172.567 43.4427 172.856 43.3424 173.116 43.2285V44.2402C172.866 44.3678 172.585 44.4658 172.275 44.5342C171.97 44.6025 171.605 44.6367 171.182 44.6367ZM181.354 40.7402C181.354 41.3555 181.274 41.9046 181.114 42.3877C180.955 42.8708 180.725 43.2786 180.424 43.6113C180.123 43.944 179.758 44.1992 179.33 44.377C178.906 44.5501 178.425 44.6367 177.888 44.6367C177.386 44.6367 176.926 44.5501 176.507 44.377C176.092 44.1992 175.732 43.944 175.427 43.6113C175.126 43.2786 174.891 42.8708 174.723 42.3877C174.559 41.9046 174.477 41.3555 174.477 40.7402C174.477 39.9199 174.616 39.2227 174.894 38.6484C175.172 38.0697 175.568 37.6299 176.083 37.3291C176.603 37.0238 177.22 36.8711 177.936 36.8711C178.619 36.8711 179.216 37.0238 179.727 37.3291C180.242 37.6344 180.64 38.0765 180.923 38.6553C181.21 39.2295 181.354 39.9245 181.354 40.7402ZM175.652 40.7402C175.652 41.3418 175.732 41.8636 175.892 42.3057C176.051 42.7477 176.297 43.0895 176.63 43.3311C176.963 43.5726 177.391 43.6934 177.915 43.6934C178.435 43.6934 178.861 43.5726 179.193 43.3311C179.531 43.0895 179.779 42.7477 179.938 42.3057C180.098 41.8636 180.178 41.3418 180.178 40.7402C180.178 40.1432 180.098 39.6283 179.938 39.1953C179.779 38.7578 179.533 38.4206 179.2 38.1836C178.868 37.9466 178.437 37.8281 177.908 37.8281C177.129 37.8281 176.557 38.0856 176.192 38.6006C175.832 39.1156 175.652 39.8288 175.652 40.7402ZM191.45 36.8711C192.275 36.8711 192.897 37.0876 193.316 37.5205C193.736 37.9489 193.945 38.6393 193.945 39.5918V44.5H192.824V39.6465C192.824 39.0404 192.692 38.5869 192.428 38.2861C192.168 37.9808 191.781 37.8281 191.266 37.8281C190.541 37.8281 190.015 38.0378 189.687 38.457C189.358 38.8763 189.194 39.4938 189.194 40.3096V44.5H188.066V39.6465C188.066 39.2409 188.007 38.9036 187.889 38.6348C187.775 38.3659 187.602 38.1654 187.369 38.0332C187.141 37.8965 186.852 37.8281 186.501 37.8281C186.004 37.8281 185.605 37.9307 185.305 38.1357C185.004 38.3408 184.785 38.6462 184.648 39.0518C184.516 39.4528 184.45 39.9473 184.45 40.5352V44.5H183.315V37.0078H184.231L184.402 38.0674H184.464C184.614 37.8076 184.803 37.5889 185.031 37.4111C185.259 37.2334 185.514 37.099 185.797 37.0078C186.079 36.9167 186.38 36.8711 186.699 36.8711C187.269 36.8711 187.745 36.9782 188.128 37.1924C188.515 37.402 188.796 37.7233 188.969 38.1562H189.03C189.276 37.7233 189.614 37.402 190.042 37.1924C190.47 36.9782 190.94 36.8711 191.45 36.8711Z" fill="#C0BFBD"/>
</svg>
