<svg width="218" height="56" viewBox="0 0 218 56" fill="none" xmlns="http://www.w3.org/2000/svg">
<rect width="218" height="56" rx="16" fill="#1F1F22"/>
<circle cx="27" cy="27" r="7" stroke="#AFF4C6" stroke-width="1.5"/>
<path d="M32.5303 31.4697L32 30.9393L30.9393 32L31.4697 32.5303L32.5303 31.4697ZM34.9697 36.0303C35.2626 36.3232 35.7374 36.3232 36.0303 36.0303C36.3232 35.7374 36.3232 35.2626 36.0303 34.9697L34.9697 36.0303ZM32 32L31.4697 32.5303L34.9697 36.0303L35.5 35.5L36.0303 34.9697L32.5303 31.4697L32 32Z" fill="#AFF4C6"/>
<path d="M64.0078 30.9609C64.0078 31.638 63.8385 32.2161 63.5 32.6953C63.1667 33.1693 62.6979 33.5312 62.0938 33.7812C61.4896 34.0312 60.7786 34.1562 59.9609 34.1562C59.5286 34.1562 59.1198 34.1354 58.7344 34.0938C58.349 34.0521 57.9948 33.9922 57.6719 33.9141C57.349 33.8359 57.0651 33.7396 56.8203 33.625V32.3516C57.2109 32.513 57.6875 32.6641 58.25 32.8047C58.8125 32.9401 59.401 33.0078 60.0156 33.0078C60.5885 33.0078 61.0729 32.9323 61.4688 32.7812C61.8646 32.625 62.1641 32.4036 62.3672 32.1172C62.5755 31.8255 62.6797 31.4766 62.6797 31.0703C62.6797 30.6797 62.5938 30.3542 62.4219 30.0938C62.25 29.8281 61.9635 29.5885 61.5625 29.375C61.1667 29.1562 60.625 28.9245 59.9375 28.6797C59.4531 28.5078 59.026 28.3203 58.6562 28.1172C58.2865 27.9089 57.9766 27.6745 57.7266 27.4141C57.4766 27.1536 57.2865 26.8516 57.1562 26.5078C57.0312 26.1641 56.9688 25.7708 56.9688 25.3281C56.9688 24.7188 57.1224 24.1979 57.4297 23.7656C57.7422 23.3281 58.1719 22.9948 58.7188 22.7656C59.2708 22.5312 59.9036 22.4141 60.6172 22.4141C61.2266 22.4141 61.7891 22.4714 62.3047 22.5859C62.8255 22.7005 63.3021 22.8542 63.7344 23.0469L63.3203 24.1875C62.9089 24.0156 62.4714 23.8724 62.0078 23.7578C61.5495 23.6432 61.0755 23.5859 60.5859 23.5859C60.0964 23.5859 59.6823 23.6589 59.3438 23.8047C59.0104 23.9453 58.7552 24.1458 58.5781 24.4062C58.401 24.6667 58.3125 24.9766 58.3125 25.3359C58.3125 25.737 58.3958 26.0703 58.5625 26.3359C58.7344 26.6016 59.0052 26.8385 59.375 27.0469C59.75 27.25 60.2448 27.4635 60.8594 27.6875C61.5312 27.9323 62.1016 28.1927 62.5703 28.4688C63.0391 28.7396 63.3958 29.0729 63.6406 29.4688C63.8854 29.8594 64.0078 30.3568 64.0078 30.9609ZM69.4453 25.2812C70.1745 25.2812 70.7995 25.4427 71.3203 25.7656C71.8411 26.0885 72.2396 26.5417 72.5156 27.125C72.7917 27.7031 72.9297 28.3802 72.9297 29.1562V29.9609H67.0156C67.0312 30.9661 67.2812 31.7318 67.7656 32.2578C68.25 32.7839 68.9323 33.0469 69.8125 33.0469C70.3542 33.0469 70.8333 32.9974 71.25 32.8984C71.6667 32.7995 72.099 32.6536 72.5469 32.4609V33.6016C72.1146 33.7943 71.6849 33.9349 71.2578 34.0234C70.8359 34.112 70.3359 34.1562 69.7578 34.1562C68.9349 34.1562 68.2161 33.9896 67.6016 33.6562C66.9922 33.3177 66.5182 32.8229 66.1797 32.1719C65.8411 31.5208 65.6719 30.724 65.6719 29.7812C65.6719 28.8594 65.8255 28.0625 66.1328 27.3906C66.4453 26.7135 66.8828 26.1927 67.4453 25.8281C68.013 25.4635 68.6797 25.2812 69.4453 25.2812ZM69.4297 26.3438C68.737 26.3438 68.1849 26.5703 67.7734 27.0234C67.362 27.4766 67.1172 28.1094 67.0391 28.9219H71.5703C71.5651 28.4115 71.4844 27.9635 71.3281 27.5781C71.1771 27.1875 70.9453 26.8854 70.6328 26.6719C70.3203 26.4531 69.9193 26.3438 69.4297 26.3438ZM78.3359 25.2969C79.3568 25.2969 80.1146 25.526 80.6094 25.9844C81.1042 26.4427 81.3516 27.1745 81.3516 28.1797V34H80.4062L80.1562 32.7344H80.0938C79.8542 33.0469 79.6042 33.3099 79.3438 33.5234C79.0833 33.7318 78.7812 33.8906 78.4375 34C78.099 34.1042 77.6823 34.1562 77.1875 34.1562C76.6667 34.1562 76.2031 34.0651 75.7969 33.8828C75.3958 33.7005 75.0781 33.4245 74.8438 33.0547C74.6146 32.6849 74.5 32.2161 74.5 31.6484C74.5 30.7943 74.8385 30.138 75.5156 29.6797C76.1927 29.2214 77.224 28.9714 78.6094 28.9297L80.0859 28.8672V28.3438C80.0859 27.6042 79.9271 27.0859 79.6094 26.7891C79.2917 26.4922 78.8438 26.3438 78.2656 26.3438C77.8177 26.3438 77.3906 26.4089 76.9844 26.5391C76.5781 26.6693 76.1927 26.8229 75.8281 27L75.4297 26.0156C75.8151 25.8177 76.2578 25.6484 76.7578 25.5078C77.2578 25.3672 77.7839 25.2969 78.3359 25.2969ZM80.0703 29.7812L78.7656 29.8359C77.6979 29.8776 76.9453 30.0521 76.5078 30.3594C76.0703 30.6667 75.8516 31.1016 75.8516 31.6641C75.8516 32.1536 76 32.5156 76.2969 32.75C76.5938 32.9844 76.987 33.1016 77.4766 33.1016C78.237 33.1016 78.8594 32.8906 79.3438 32.4688C79.8281 32.0469 80.0703 31.4141 80.0703 30.5703V29.7812ZM87.9141 25.2812C88.0859 25.2812 88.2656 25.2917 88.4531 25.3125C88.6406 25.3281 88.8073 25.3516 88.9531 25.3828L88.7891 26.5859C88.6484 26.5495 88.4922 26.5208 88.3203 26.5C88.1484 26.4792 87.987 26.4688 87.8359 26.4688C87.4922 26.4688 87.1667 26.5391 86.8594 26.6797C86.5573 26.8151 86.2917 27.013 86.0625 27.2734C85.8333 27.5286 85.6536 27.8385 85.5234 28.2031C85.3932 28.5625 85.3281 28.9635 85.3281 29.4062V34H84.0234V25.4375H85.1016L85.2422 27.0156H85.2969C85.474 26.6979 85.6875 26.4089 85.9375 26.1484C86.1875 25.8828 86.4766 25.6719 86.8047 25.5156C87.138 25.3594 87.5078 25.2812 87.9141 25.2812ZM94 34.1562C93.2292 34.1562 92.5495 33.9974 91.9609 33.6797C91.3724 33.362 90.9141 32.8776 90.5859 32.2266C90.2578 31.5755 90.0938 30.7552 90.0938 29.7656C90.0938 28.7292 90.2656 27.8828 90.6094 27.2266C90.9583 26.5651 91.4375 26.0755 92.0469 25.7578C92.6562 25.4401 93.349 25.2812 94.125 25.2812C94.5521 25.2812 94.9635 25.3255 95.3594 25.4141C95.7604 25.4974 96.0885 25.6042 96.3438 25.7344L95.9531 26.8203C95.6927 26.7161 95.3906 26.6224 95.0469 26.5391C94.7083 26.4557 94.3906 26.4141 94.0938 26.4141C93.5 26.4141 93.0052 26.5417 92.6094 26.7969C92.2188 27.0521 91.9245 27.4271 91.7266 27.9219C91.5339 28.4167 91.4375 29.026 91.4375 29.75C91.4375 30.4427 91.5312 31.0339 91.7188 31.5234C91.9115 32.013 92.1953 32.388 92.5703 32.6484C92.9505 32.9036 93.4245 33.0312 93.9922 33.0312C94.4453 33.0312 94.8542 32.9844 95.2188 32.8906C95.5833 32.7917 95.9141 32.6771 96.2109 32.5469V33.7031C95.9245 33.849 95.6042 33.9609 95.25 34.0391C94.901 34.1172 94.4844 34.1562 94 34.1562ZM99.5391 21.8438V25.4766C99.5391 25.6849 99.5339 25.8958 99.5234 26.1094C99.513 26.3177 99.4948 26.5104 99.4688 26.6875H99.5547C99.7318 26.3854 99.9557 26.1328 100.227 25.9297C100.503 25.7214 100.815 25.5651 101.164 25.4609C101.513 25.3516 101.883 25.2969 102.273 25.2969C102.961 25.2969 103.534 25.4062 103.992 25.625C104.456 25.8438 104.802 26.1823 105.031 26.6406C105.266 27.099 105.383 27.6927 105.383 28.4219V34H104.102V28.5078C104.102 27.7943 103.938 27.2604 103.609 26.9062C103.286 26.5521 102.789 26.375 102.117 26.375C101.482 26.375 100.974 26.4974 100.594 26.7422C100.219 26.9818 99.9479 27.3359 99.7812 27.8047C99.6198 28.2734 99.5391 28.8464 99.5391 29.5234V34H98.2422V21.8438H99.5391ZM107.859 33.1875C107.859 32.8229 107.948 32.5651 108.125 32.4141C108.302 32.2578 108.518 32.1797 108.773 32.1797C109.039 32.1797 109.263 32.2578 109.445 32.4141C109.628 32.5651 109.719 32.8229 109.719 33.1875C109.719 33.5469 109.628 33.8099 109.445 33.9766C109.263 34.138 109.039 34.2188 108.773 34.2188C108.518 34.2188 108.302 34.138 108.125 33.9766C107.948 33.8099 107.859 33.5469 107.859 33.1875ZM112.062 33.1875C112.062 32.8229 112.151 32.5651 112.328 32.4141C112.505 32.2578 112.721 32.1797 112.977 32.1797C113.242 32.1797 113.466 32.2578 113.648 32.4141C113.831 32.5651 113.922 32.8229 113.922 33.1875C113.922 33.5469 113.831 33.8099 113.648 33.9766C113.466 34.138 113.242 34.2188 112.977 34.2188C112.721 34.2188 112.505 34.138 112.328 33.9766C112.151 33.8099 112.062 33.5469 112.062 33.1875ZM116.266 33.1875C116.266 32.8229 116.354 32.5651 116.531 32.4141C116.708 32.2578 116.924 32.1797 117.18 32.1797C117.445 32.1797 117.669 32.2578 117.852 32.4141C118.034 32.5651 118.125 32.8229 118.125 33.1875C118.125 33.5469 118.034 33.8099 117.852 33.9766C117.669 34.138 117.445 34.2188 117.18 34.2188C116.924 34.2188 116.708 34.138 116.531 33.9766C116.354 33.8099 116.266 33.5469 116.266 33.1875Z" fill="#EFEFEF"/>
</svg>
